<svg width="24" height="24" viewBox="0 0 24 24" fill="none" xmlns="http://www.w3.org/2000/svg">
<path d="M23.8536 22.7785C23.6742 22.2759 23.2541 21.099 23.254 19.9422L23.2543 19.6072C23.258 16.1436 23.2614 12.2369 19.6555 8.314L19.7944 8.17515C19.926 8.04355 20 7.86507 20 7.67892C20 7.49281 19.926 7.31429 19.7944 7.18268L18.7902 6.17857L20.2975 4.67134L21.2849 5.65876C21.418 5.79186 21.5971 5.86432 21.7811 5.86432C21.8339 5.86432 21.8871 5.85838 21.9397 5.84617C22.1757 5.79144 22.3668 5.6188 22.4451 5.38961L23.9622 0.952054C24.0488 0.698721 23.9837 0.41816 23.7944 0.228827C23.605 0.0394943 23.3245 -0.0255816 23.0712 0.0610147L18.6336 1.57806C18.4044 1.65643 18.2317 1.84749 18.177 2.08347C18.1222 2.31944 18.193 2.56697 18.3644 2.7383L19.305 3.67897L17.7978 5.1862L16.817 4.20547C16.543 3.93142 16.0987 3.93146 15.8246 4.20547L15.6858 4.34428C11.763 0.738394 7.85689 0.741949 4.3928 0.745598L4.05765 0.745832C2.90083 0.745739 1.7239 0.325622 1.22131 0.146254C1.13527 0.115518 1.06734 0.0912837 1.01251 0.0736463C0.469449 -0.100763 0.20166 0.242348 0.132421 0.351728C0.0485846 0.484265 0.0143391 0.634908 0.0258011 0.782136H0.0257075L1.43862 18.1003L0.205543 19.3334C-0.0685144 19.6075 -0.0685144 20.0518 0.205543 20.3258L1.43188 21.5522L0.205543 22.7785C-0.0685144 23.0526 -0.0685144 23.4969 0.205543 23.771C0.342572 23.908 0.522127 23.9765 0.701729 23.9765C0.881331 23.9765 1.06093 23.9079 1.19791 23.771L2.4243 22.5446L3.65063 23.771C3.78766 23.9079 3.96722 23.9765 4.14682 23.9765C4.32567 23.9765 4.50452 23.9085 4.64141 23.7725L5.88019 22.5418L23.2169 23.974C23.2347 23.9755 23.2523 23.9761 23.2699 23.9762C23.2708 23.9764 23.2723 23.9767 23.2723 23.9767C23.2723 23.9767 23.2734 23.9766 23.2743 23.9764C23.2747 23.9764 23.2751 23.9765 23.2755 23.9765V23.9763C23.3052 23.9719 23.5394 23.9361 23.648 23.8674C23.7574 23.7982 24.1006 23.5303 23.9261 22.9873C23.9086 22.9325 23.8843 22.8646 23.8536 22.7785ZM22.1713 1.85194L21.4813 3.87036L20.1529 2.54195L22.1713 1.85194ZM18.3057 7.67896L16.3208 9.66385L14.336 7.67896L16.3208 5.69413L18.3057 7.67896ZM14.6927 5.33745L13.334 6.69618C10.708 4.26695 8.19186 3.43018 5.95603 2.68679C5.41732 2.50765 4.90008 2.33568 4.4052 2.14906C7.74391 2.1456 11.1904 2.14545 14.6927 5.33745ZM5.51322 4.01862C7.85361 4.79677 10.2737 5.6014 12.8474 8.17515L13.8282 9.15592L5.42999 17.5541H2.80226L1.55838 2.30831C2.77817 3.10882 4.11753 3.55457 5.51322 4.01862ZM1.69415 19.8296L2.56619 18.9576H4.02649L2.4243 20.5597L1.69415 19.8296ZM4.14845 22.2839L3.41671 21.5522L5.0292 19.9397V21.4089L4.14845 22.2839ZM6.4327 21.1792V18.5362L14.8206 10.1483L15.8245 11.1523C15.8246 11.1524 15.8246 11.1524 15.8246 11.1525C18.3984 13.7262 19.2031 16.1463 19.9812 18.4867C20.4451 19.8817 20.8906 21.2204 21.6903 22.4397L6.4327 21.1792ZM21.8508 19.5947C21.6641 19.0997 21.4922 18.5826 21.313 18.0438C20.5696 15.808 19.7329 13.2919 17.3037 10.6659L18.6624 9.30717C21.8544 12.8096 21.8543 16.2563 21.8508 19.5947Z" fill="black"/>
</svg>
