<svg width="24" height="24" viewBox="0 0 24 24" fill="none" xmlns="http://www.w3.org/2000/svg">
<path d="M24 1.41176V0H19.7647H19.0588H15.5294V3.52941C15.5294 4.44965 16.1196 5.23431 16.9412 5.52565V7.05882H18.3529V5.52565C19.1745 5.23431 19.7647 4.44965 19.7647 3.52941V1.41176H21.1765V12H19.0588V11.2941C19.0588 10.1264 18.1089 9.17647 16.9412 9.17647H11.2941C10.1264 9.17647 9.17647 10.1264 9.17647 11.2941V12H8.02028L3.78499 8.47059H0V16.2353H3.52941V19.8861C2.70781 20.1775 2.11765 20.9621 2.11765 21.8824C2.11765 23.0501 3.06762 24 4.23529 24C5.40296 24 6.35294 23.0501 6.35294 21.8824C6.35294 20.9621 5.76278 20.1775 4.94118 19.8861V19.0588H19.0588V19.8861C18.2372 20.1775 17.6471 20.9621 17.6471 21.8824C17.6471 23.0501 18.597 24 19.7647 24C20.9324 24 21.8824 23.0501 21.8824 21.8824C21.8824 20.9621 21.2922 20.1775 20.4706 19.8861V16.2353H24V12H22.5882V1.41176H24ZM18.3529 3.52941C18.3529 3.91864 18.0363 4.23529 17.6471 4.23529C17.2578 4.23529 16.9412 3.91864 16.9412 3.52941V1.41176H18.3529V3.52941ZM17.6471 11.2941V12H16.2353V10.5882H16.9412C17.3304 10.5882 17.6471 10.9049 17.6471 11.2941ZM13.4118 12V10.5882H14.8235V12H13.4118ZM10.5882 11.2941C10.5882 10.9049 10.9049 10.5882 11.2941 10.5882H12V12H10.5882V11.2941ZM1.41176 9.88235H3.27384L5.81501 12H1.41176V9.88235ZM4.23529 22.5882C3.84607 22.5882 3.52941 22.2716 3.52941 21.8824C3.52941 21.4931 3.84607 21.1765 4.23529 21.1765C4.62452 21.1765 4.94118 21.4931 4.94118 21.8824C4.94118 22.2716 4.62452 22.5882 4.23529 22.5882ZM19.7647 22.5882C19.3754 22.5882 19.0588 22.2716 19.0588 21.8824C19.0588 21.4931 19.3754 21.1765 19.7647 21.1765C20.154 21.1765 20.4706 21.4931 20.4706 21.8824C20.4706 22.2716 20.154 22.5882 19.7647 22.5882ZM19.0588 17.6471H4.94118V16.2353H19.0588V17.6471ZM22.5882 14.8235H1.41176V13.4118H22.5882V14.8235Z" fill="black"/>
</svg>
