<svg width="24" height="24" viewBox="0 0 24 24" fill="none" xmlns="http://www.w3.org/2000/svg">
<path d="M20.2024 17.6488V12.4102C20.2024 12.3842 20.2009 12.3582 20.198 12.3325C20.1859 11.0566 19.8746 9.85052 19.331 8.77935C19.6813 8.3399 19.9675 7.84625 20.179 7.30938C20.7365 5.89398 20.707 4.3471 20.0956 2.95349C19.9404 2.59955 19.5286 2.43731 19.1735 2.59021C18.8802 2.71655 18.6011 2.86523 18.3376 3.03369C18.1326 2.11523 17.7098 1.25152 17.0881 0.505551L16.8776 0.253049C16.6306 -0.0433991 16.1907 -0.0853302 15.8921 0.158932C14.6393 1.18451 13.8651 2.63269 13.7122 4.23687C13.7047 4.31634 13.699 4.39563 13.6946 4.47473C13.1556 4.3634 12.5977 4.30462 12.0258 4.30462C7.51941 4.30462 3.85327 7.94073 3.85327 12.4102V17.6581C2.98737 18.5742 2.53088 19.6091 2.53125 20.6611C2.53162 21.7628 3.03296 22.8462 3.9809 23.7942C4.11823 23.9313 4.29822 24 4.47821 24C4.65802 24 4.83801 23.9313 4.97534 23.794L5.0658 23.7035C5.92236 22.8472 6.41345 21.8795 6.4997 20.8876C7.93909 22.2446 9.87762 23.0777 12.0071 23.0777C14.1191 23.0777 16.043 22.2583 17.4785 20.9213C17.5514 21.9327 18.0452 22.921 18.9185 23.7942C19.0558 23.9313 19.2356 24 19.4156 24C19.5956 24 19.7754 23.9313 19.9127 23.7942L20.0032 23.7035C20.9507 22.7562 21.4514 21.6729 21.4508 20.571C21.4506 19.5502 21.0198 18.5451 20.2024 17.6488ZM12.0258 5.71087C12.5676 5.71087 13.0946 5.77459 13.5998 5.89416C13.4138 8.52813 11.163 10.6137 8.42322 10.6137C8.42011 10.6137 8.41681 10.6137 8.4137 10.6137C8.33862 10.6137 8.26666 10.6256 8.19891 10.6474H5.49774C6.28125 7.80578 8.91083 5.71087 12.0258 5.71087ZM15.1121 4.37036C15.2064 3.38195 15.6092 2.47046 16.2638 1.74243C16.7565 2.45507 17.033 3.28033 17.0695 4.13891C16.7325 4.53497 16.4495 4.97845 16.2288 5.46093C15.8676 5.24505 15.4876 5.05664 15.0928 4.89752C15.0897 4.72284 15.0952 4.54687 15.1121 4.37036ZM19.0529 4.24585C19.255 5.08831 19.1949 5.9707 18.8705 6.79394C18.7736 7.03985 18.6553 7.27331 18.5186 7.4934C18.1859 7.06201 17.8103 6.66485 17.3985 6.3078C17.404 6.29297 17.4091 6.27813 17.4148 6.26367C17.744 5.42816 18.3137 4.73126 19.0529 4.24585ZM14.9643 6.37628C16.7071 7.21161 18.0352 8.7658 18.5539 10.6474H12.4785C13.8126 9.62292 14.7369 8.10553 14.9643 6.37628ZM17.4624 14.9095C17.4022 14.7566 17.352 14.6014 17.3101 14.445H18.7961V16.7082C18.2043 16.2415 17.7448 15.6264 17.4624 14.9095ZM5.25952 16.7082V14.445H6.74579C6.70367 14.6014 6.65369 14.7566 6.59345 14.9095C6.31091 15.6264 5.85132 16.2415 5.25952 16.7082ZM18.6361 12.0536V13.0388H5.37836V12.0536H18.6361ZM4.55475 18.9994C4.92169 19.5123 5.10699 20.0389 5.10718 20.5715C5.10736 21.1351 4.90027 21.692 4.48993 22.2327C4.12317 21.72 3.93768 21.1932 3.9375 20.6605C3.93732 20.0967 4.14459 19.5399 4.55475 18.9994ZM7.90173 15.425C8.02826 15.104 8.12366 14.7761 8.18976 14.445H15.8659C15.932 14.7761 16.0276 15.104 16.1539 15.425C16.5412 16.4079 17.1788 17.246 18.0011 17.8716C16.9378 20.1156 14.6508 21.6714 12.0071 21.6714C9.37244 21.6714 7.09204 20.1262 6.02399 17.8945C6.86096 17.2663 7.50971 16.42 7.90173 15.425ZM19.4923 18.9994C19.8593 19.5123 20.0446 20.0389 20.0447 20.5715C20.0449 21.1351 19.8376 21.692 19.4275 22.2327C19.0605 21.7198 18.8752 21.1932 18.8751 20.6605C18.8749 20.0967 19.0822 19.5399 19.4923 18.9994Z" fill="black"/>
</svg>
