<svg width="24" height="24" viewBox="0 0 24 24" fill="none" xmlns="http://www.w3.org/2000/svg">
<path fill-rule="evenodd" clip-rule="evenodd" d="M3.71023 12.2034C3.79653 11.7944 4.17537 11.5 4.61538 11.5H19.3846C19.8246 11.5 20.2035 11.7944 20.2898 12.2034L22.1359 20.9534C22.1902 21.2105 22.12 21.477 21.9446 21.6797C21.7693 21.8825 21.5073 22 21.2308 22H2.76923C2.49268 22 2.2307 21.8825 2.05538 21.6797C1.88005 21.477 1.80984 21.2105 1.86408 20.9534L3.71023 12.2034ZM5.37213 13.25L3.8952 20.25H20.1048L18.6279 13.25H5.37213Z" fill="black"/>
<path fill-rule="evenodd" clip-rule="evenodd" d="M8.183 2.47014C9.42195 1.6499 10.7763 1 12 1C13.2237 1 14.578 1.6499 15.817 2.47014C17.096 3.31685 18.4133 4.45523 19.5965 5.65155C20.7808 6.84906 21.8548 8.12896 22.6393 9.27313C23.0312 9.84457 23.361 10.3969 23.5961 10.8989C23.8216 11.3804 24 11.8983 24 12.375C24 12.8582 23.5867 13.25 23.0769 13.25H0.923077C0.413276 13.25 0 12.8582 0 12.375C0 11.8983 0.178418 11.3804 0.4039 10.8989C0.638989 10.3969 0.968823 9.84457 1.36067 9.27313C2.14525 8.12896 3.21916 6.84906 4.4035 5.65155C5.58667 4.45523 6.90404 3.31685 8.183 2.47014ZM2.1437 11.5H21.8563C21.6745 11.1318 21.4169 10.7016 21.0914 10.2269C20.376 9.18354 19.373 7.98427 18.2497 6.84845C17.1251 5.71143 15.904 4.66231 14.7599 3.90486C13.5758 3.12093 12.6225 2.75 12 2.75C11.3775 2.75 10.4242 3.12093 9.24008 3.90486C8.09596 4.66231 6.87486 5.71143 5.75034 6.84845C4.627 7.98427 3.62399 9.18354 2.90856 10.2269C2.58306 10.7016 2.32547 11.1318 2.1437 11.5Z" fill="black"/>
<path fill-rule="evenodd" clip-rule="evenodd" d="M18.1538 6.25L5.84615 6.25V4.5L18.1538 4.5V6.25Z" fill="black"/>
<path fill-rule="evenodd" clip-rule="evenodd" d="M10.3264 20.25C10.3247 20.2362 10.323 20.2222 10.3214 20.2081C10.2679 19.7516 10.2355 19.1653 10.3022 18.5966C10.3703 18.015 10.5318 17.5428 10.7864 17.2325C11.005 16.9661 11.3445 16.75 12.0001 16.75C12.6557 16.75 12.9952 16.9661 13.2138 17.2325C13.4684 17.5428 13.6299 18.015 13.6981 18.5966C13.7647 19.1653 13.7323 19.7516 13.6788 20.2081C13.6772 20.2222 13.6755 20.2362 13.6738 20.25H10.3264ZM14.4616 21.125C15.3627 21.3148 15.3629 21.3142 15.3629 21.3142L15.3635 21.3117L15.3646 21.3067L15.3682 21.291L15.3797 21.2376C15.3892 21.1927 15.402 21.1293 15.4166 21.0499C15.4458 20.8915 15.4824 20.6683 15.5137 20.4013C15.5756 19.8734 15.6201 19.1472 15.5329 18.4034C15.4473 17.6725 15.2241 16.8322 14.671 16.1581C14.0819 15.4401 13.1907 15 12.0001 15C10.8095 15 9.91828 15.4401 9.32917 16.1581C8.77611 16.8322 8.55296 17.6725 8.46729 18.4034C8.38011 19.1472 8.42465 19.8734 8.48652 20.4013C8.51781 20.6683 8.5544 20.8915 8.58358 21.0499C8.59819 21.1293 8.61102 21.1927 8.6205 21.2376L8.63205 21.291L8.6356 21.3067L8.63675 21.3117L8.63717 21.3135C8.63717 21.3135 8.63747 21.3148 9.53857 21.125L8.63747 21.3148L8.7981 22H15.2021L15.3629 21.3142L14.4616 21.125Z" fill="black"/>
</svg>
